<mxfile host="Electron" agent="Mozilla/5.0 (Windows NT 10.0; Win64; x64) AppleWebKit/537.36 (KHTML, like Gecko) draw.io/26.2.15 Chrome/134.0.6998.205 Electron/35.2.1 Safari/537.36" version="26.2.15">
  <diagram name="Page-1" id="2k-o0kNAAmgfML5mh0iY">
    <mxGraphModel dx="1090" dy="593" grid="1" gridSize="10" guides="1" tooltips="1" connect="1" arrows="1" fold="1" page="1" pageScale="1" pageWidth="850" pageHeight="1100" math="0" shadow="0">
      <root>
        <mxCell id="0" />
        <mxCell id="1" parent="0" />
        <mxCell id="r1G051ipQfJsXfLaqeuO-1" value="" style="ellipse;whiteSpace=wrap;html=1;aspect=fixed;" parent="1" vertex="1">
          <mxGeometry x="280" y="200" width="370" height="370" as="geometry" />
        </mxCell>
        <mxCell id="r1G051ipQfJsXfLaqeuO-4" value="" style="ellipse;whiteSpace=wrap;html=1;aspect=fixed;" parent="1" vertex="1">
          <mxGeometry x="280" y="520" width="370" height="370" as="geometry" />
        </mxCell>
        <mxCell id="r1G051ipQfJsXfLaqeuO-2" value="" style="rounded=0;whiteSpace=wrap;html=1;" parent="1" vertex="1">
          <mxGeometry x="280" y="400" width="370" height="150" as="geometry" />
        </mxCell>
        <mxCell id="r1G051ipQfJsXfLaqeuO-3" value="" style="rounded=0;whiteSpace=wrap;html=1;" parent="1" vertex="1">
          <mxGeometry x="280" y="550" width="370" height="150" as="geometry" />
        </mxCell>
        <mxCell id="r1G051ipQfJsXfLaqeuO-5" value="&lt;font style=&quot;font-size: 28px;&quot;&gt;18 in&lt;/font&gt;" style="text;html=1;strokeColor=none;fillColor=none;align=center;verticalAlign=middle;whiteSpace=wrap;rounded=0;" parent="1" vertex="1">
          <mxGeometry x="190" y="460" width="80" height="30" as="geometry" />
        </mxCell>
        <mxCell id="r1G051ipQfJsXfLaqeuO-6" value="&lt;font style=&quot;font-size: 28px;&quot;&gt;46 in&lt;/font&gt;" style="text;html=1;strokeColor=none;fillColor=none;align=center;verticalAlign=middle;whiteSpace=wrap;rounded=0;" parent="1" vertex="1">
          <mxGeometry x="425" y="500" width="80" height="30" as="geometry" />
        </mxCell>
        <mxCell id="r1G051ipQfJsXfLaqeuO-7" value="&lt;font style=&quot;font-size: 28px;&quot;&gt;18 in&lt;/font&gt;" style="text;html=1;strokeColor=none;fillColor=none;align=center;verticalAlign=middle;whiteSpace=wrap;rounded=0;" parent="1" vertex="1">
          <mxGeometry x="190" y="620" width="80" height="30" as="geometry" />
        </mxCell>
        <mxCell id="r1G051ipQfJsXfLaqeuO-8" value="&lt;font style=&quot;font-size: 28px;&quot;&gt;23 in&lt;/font&gt;" style="text;html=1;strokeColor=none;fillColor=none;align=center;verticalAlign=middle;whiteSpace=wrap;rounded=0;" parent="1" vertex="1">
          <mxGeometry x="470" y="290" width="80" height="30" as="geometry" />
        </mxCell>
        <mxCell id="r1G051ipQfJsXfLaqeuO-10" value="" style="endArrow=none;html=1;rounded=0;entryX=0.5;entryY=0;entryDx=0;entryDy=0;" parent="1" source="r1G051ipQfJsXfLaqeuO-2" target="r1G051ipQfJsXfLaqeuO-1" edge="1">
          <mxGeometry width="50" height="50" relative="1" as="geometry">
            <mxPoint x="390" y="370" as="sourcePoint" />
            <mxPoint x="440" y="320" as="targetPoint" />
          </mxGeometry>
        </mxCell>
        <mxCell id="kUlQBFFOAXmQokIGbTbL-1" value="" style="ellipse;whiteSpace=wrap;html=1;" parent="1" vertex="1">
          <mxGeometry x="240" y="1000" width="230" height="230" as="geometry" />
        </mxCell>
        <mxCell id="kUlQBFFOAXmQokIGbTbL-2" value="" style="swimlane;startSize=0;" parent="1" vertex="1">
          <mxGeometry x="560" y="1120" width="200" height="200" as="geometry">
            <mxRectangle x="560" y="1120" width="50" height="40" as="alternateBounds" />
          </mxGeometry>
        </mxCell>
        <mxCell id="kUlQBFFOAXmQokIGbTbL-3" value="29.5&quot;" style="text;html=1;strokeColor=none;fillColor=none;align=center;verticalAlign=middle;whiteSpace=wrap;rounded=0;" parent="1" vertex="1">
          <mxGeometry x="630" y="1330" width="60" height="30" as="geometry" />
        </mxCell>
        <mxCell id="kUlQBFFOAXmQokIGbTbL-4" value="29.5&quot;" style="text;html=1;strokeColor=none;fillColor=none;align=center;verticalAlign=middle;whiteSpace=wrap;rounded=0;" parent="1" vertex="1">
          <mxGeometry x="760" y="1205" width="60" height="30" as="geometry" />
        </mxCell>
        <mxCell id="kUlQBFFOAXmQokIGbTbL-5" value="" style="endArrow=classic;startArrow=classic;html=1;rounded=0;entryX=0.5;entryY=0;entryDx=0;entryDy=0;exitX=0.5;exitY=1;exitDx=0;exitDy=0;" parent="1" source="kUlQBFFOAXmQokIGbTbL-1" target="kUlQBFFOAXmQokIGbTbL-1" edge="1">
          <mxGeometry width="50" height="50" relative="1" as="geometry">
            <mxPoint x="400" y="1260" as="sourcePoint" />
            <mxPoint x="450" y="1210" as="targetPoint" />
          </mxGeometry>
        </mxCell>
        <mxCell id="kUlQBFFOAXmQokIGbTbL-6" value="29.5&quot;" style="text;html=1;strokeColor=none;fillColor=none;align=center;verticalAlign=middle;whiteSpace=wrap;rounded=0;" parent="1" vertex="1">
          <mxGeometry x="360" y="1110" width="60" height="30" as="geometry" />
        </mxCell>
      </root>
    </mxGraphModel>
  </diagram>
</mxfile>
